# xmcd
#
# Track frame offsets:
#	180
#	14066
#	27963
#	40332
#	59076
#	70869
#	87884
#	98910
#	111663
#	121142
#	133704
#	146676
#	176035
#	187640
#	201606
#	217770
#	229853
#	241760
#	255754
#	265645
#
# Disc length: 3705 seconds
#
# Revision: 1
# Processed by: cddbd v1.5.2PL0 Copyright (c) Steve Scherf et al.
# Submitted via: audiograbber 1.83.01
#
DISCID=1e0e7714
DTITLE=DC and The Cruisers - ... back for more !
DYEAR=1996
DGENRE=Blues
TTITLE0=Let's work together
TTITLE1=Shake your moneymaker
TTITLE2=Got my heart set on you
TTITLE3=Before you accuse me
TTITLE4=Give me all your lovin'
TTITLE5=Switchboard Susan
TTITLE6=Route 66
TTITLE7=Violent love
TTITLE8=His latest flame
TTITLE9=Back in the night
TTITLE10=Tulsa time
TTITLE11=The things (that) I used to do
TTITLE12=My babe
TTITLE13=I can see clearly now
TTITLE14=She's tuff
TTITLE15=Baby please don't lie to me
TTITLE16=Where were you when the lights went out
TTITLE17=Hallelujah, I love her so
TTITLE18=Goin' back home
TTITLE19=Milk and Alcohol
EXTD=Live from "Feelgood", Iserlohn
EXTT0=
EXTT1=
EXTT2=
EXTT3=
EXTT4=
EXTT5=
EXTT6=
EXTT7=
EXTT8=
EXTT9=
EXTT10=
EXTT11=
EXTT12=
EXTT13=
EXTT14=
EXTT15=
EXTT16=
EXTT17=
EXTT18=
EXTT19=
PLAYORDER=
